# xmcd
#
# Track frame offsets: 
#        150
#        43467
#        70377
#        103600
#        128465
#
# Disc length: 2170 seconds
#
# Revision: 0
# Processed by: cddbd v1.5.2PL0 Copyright (c) Steve Scherf et al.
# Submitted via: ExactAudioCopy v0.99pb1
#
DISCID=43087805
DTITLE=Lo Fidelity Allstars - How To Operate With A Blown Mind (Album 
DTITLE=Sampler) (Promo)
DYEAR=1998
DGENRE=Avantgarde
TTITLE0=Vision Incision
TTITLE1=Kasparov's Revenge
TTITLE2=How To Operate With A Blown Mind
TTITLE3=Battleflag
TTITLE4=Kool Rok Bass
EXTD=
EXTT0=
EXTT1=
EXTT2=
EXTT3=
EXTT4=
PLAYORDER=
